<svg width="153" height="166" viewBox="0 0 153 166" fill="none" xmlns="http://www.w3.org/2000/svg">
<path d="M7.19775 152.61H11.5591V154.49H7.19775V159.432H5.19971V154.49H0.838379V152.61H5.19971V148.045H7.19775V152.61Z" fill="#E5E5E5"/>
<path d="M42.1978 117.61H46.5591V119.49H42.1978V124.432H40.1997V119.49H35.8384V117.61H40.1997V113.045H42.1978V117.61Z" fill="#E5E5E5"/>
<path d="M77.1978 12.6104H81.5591V14.4902H77.1978V19.4316H75.1997V14.4902H70.8384V12.6104H75.1997V8.04492H77.1978V12.6104Z" fill="#E5E5E5"/>
<path d="M77.1978 47.6104H81.5591V49.4902H77.1978V54.4316H75.1997V49.4902H70.8384V47.6104H75.1997V43.0449H77.1978V47.6104Z" fill="#E5E5E5"/>
<path d="M77.1978 82.6104H81.5591V84.4902H77.1978V89.4316H75.1997V84.4902H70.8384V82.6104H75.1997V78.0449H77.1978V82.6104Z" fill="#6246E5"/>
<path d="M77.1978 117.61H81.5591V119.49H77.1978V124.432H75.1997V119.49H70.8384V117.61H75.1997V113.045H77.1978V117.61Z" fill="#E5E5E5"/>
<path d="M77.1978 152.61H81.5591V154.49H77.1978V159.432H75.1997V154.49H70.8384V152.61H75.1997V148.045H77.1978V152.61Z" fill="#E5E5E5"/>
<path d="M112.198 12.6104H116.559V14.4902H112.198V19.4316H110.2V14.4902H105.838V12.6104H110.2V8.04492H112.198V12.6104Z" fill="#E5E5E5"/>
<path d="M112.198 47.6104H116.559V49.4902H112.198V54.4316H110.2V49.4902H105.838V47.6104H110.2V43.0449H112.198V47.6104Z" fill="#E5E5E5"/>
<path d="M112.198 82.6104H116.559V84.4902H112.198V89.4316H110.2V84.4902H105.838V82.6104H110.2V78.0449H112.198V82.6104Z" fill="#E5E5E5"/>
<path d="M112.198 117.61H116.559V119.49H112.198V124.432H110.2V119.49H105.838V117.61H110.2V113.045H112.198V117.61Z" fill="#E5E5E5"/>
<path d="M112.198 152.61H116.559V154.49H112.198V159.432H110.2V154.49H105.838V152.61H110.2V148.045H112.198V152.61Z" fill="#E5E5E5"/>
<path d="M147.198 12.6104H151.559V14.4902H147.198V19.4316H145.2V14.4902H140.838V12.6104H145.2V8.04492H147.198V12.6104Z" fill="#FF7152"/>
<path d="M147.198 47.6104H151.559V49.4902H147.198V54.4316H145.2V49.4902H140.838V47.6104H145.2V43.0449H147.198V47.6104Z" fill="#E5E5E5"/>
<path d="M147.198 82.6104H151.559V84.4902H147.198V89.4316H145.2V84.4902H140.838V82.6104H145.2V78.0449H147.198V82.6104Z" fill="#E5E5E5"/>
<path d="M147.198 117.61H151.559V119.49H147.198V124.432H145.2V119.49H140.838V117.61H145.2V113.045H147.198V117.61Z" fill="#E5E5E5"/>
<path d="M147.198 152.61H151.559V154.49H147.198V159.432H145.2V154.49H140.838V152.61H145.2V148.045H147.198V152.61Z" fill="#E5E5E5"/>
</svg>
