<svg width="1170" height="407" viewBox="0 0 1170 407" fill="none" xmlns="http://www.w3.org/2000/svg">
<path opacity="0.2" d="M1170 20C1170 8.9543 1161.05 0 1150 0H129.001C57.7558 0 0.000488281 57.7553 0.000488281 129V387C0.000488281 398.046 8.95479 407 20.0005 407H1150C1161.05 407 1170 398.046 1170 387V20Z" fill="#DFD7F9"/>
<g opacity="0.1">
<mask id="mask0_1_459" style="mask-type:alpha" maskUnits="userSpaceOnUse" x="906" y="0" width="265" height="352">
<path d="M906.5 0.5H1146C1158.98 0.5 1169.5 11.0213 1169.5 24V351.022H956C928.662 351.022 906.5 328.86 906.5 301.522V0.5Z" fill="url(#paint0_linear_1_459)" stroke="#6246E5"/>
</mask>
<g mask="url(#mask0_1_459)">
<circle cx="1145.02" cy="178.32" r="91.8033" stroke="#6246E5"/>
<circle cx="1137.73" cy="168.604" r="102.734" stroke="#6246E5"/>
<circle cx="1131.66" cy="160.71" r="112.45" stroke="#6246E5"/>
<circle cx="1125.58" cy="149.171" r="120.952" stroke="#6246E5"/>
<circle cx="1119.81" cy="137.937" r="129.15" stroke="#6246E5"/>
<circle cx="1110.1" cy="125.185" r="141.902" stroke="#6246E5"/>
</g>
</g>
<g opacity="0.1">
<mask id="mask1_1_459" style="mask-type:alpha" maskUnits="userSpaceOnUse" x="0" y="46" width="394" height="361">
<path d="M392.5 46.5L392.5 406.5L0.500015 406.5L0.5 46.5L392.5 46.5Z" fill="url(#paint1_linear_1_459)" stroke="#6246E5"/>
</mask>
<g mask="url(#mask1_1_459)">
<path d="M149.506 499.92C80.1729 499.92 23.9663 443.635 23.9663 374.202C23.9663 304.769 80.1729 248.484 149.506 248.484C218.839 248.484 275.045 304.769 275.045 374.202C275.045 443.635 218.839 499.92 149.506 499.92Z" stroke="#6246E5"/>
<path d="M162.773 504.902C85.197 504.902 22.308 441.925 22.308 364.237C22.308 286.55 85.197 223.573 162.773 223.573C240.349 223.573 303.238 286.55 303.238 364.237C303.238 441.925 240.349 504.902 162.773 504.902Z" stroke="#6246E5"/>
<path d="M173.553 509.885C88.6493 509.885 19.8202 440.959 19.8202 355.934C19.8202 270.909 88.6493 201.983 173.553 201.983C258.456 201.983 327.285 270.909 327.285 355.934C327.285 440.959 258.456 509.885 173.553 509.885Z" stroke="#6246E5"/>
<path d="M189.308 513.206C97.9932 513.206 23.9667 439.076 23.9667 347.63C23.9667 256.184 97.9932 182.054 189.308 182.054C280.623 182.054 354.649 256.184 354.649 347.63C354.649 439.076 280.623 513.206 189.308 513.206Z" stroke="#6246E5"/>
<path d="M204.648 516.528C107.151 516.528 28.1125 437.378 28.1125 339.742C28.1125 242.105 107.151 162.955 204.648 162.955C302.145 162.955 381.184 242.105 381.184 339.742C381.184 437.379 302.145 516.528 204.648 516.528Z" stroke="#6246E5"/>
<path d="M222.062 520.68C114.947 520.68 28.1125 433.723 28.1125 326.456C28.1125 219.188 114.947 132.231 222.062 132.231C329.176 132.231 416.01 219.188 416.01 326.456C416.01 433.723 329.176 520.68 222.062 520.68Z" stroke="#6246E5"/>
</g>
</g>
<defs>
<linearGradient id="paint0_linear_1_459" x1="1093.24" y1="9.86234" x2="911.233" y2="354.287" gradientUnits="userSpaceOnUse">
<stop stop-color="#747DEF"/>
<stop offset="1" stop-color="#5E3BE1"/>
</linearGradient>
<linearGradient id="paint1_linear_1_459" x1="379.534" y1="302.035" x2="-91.0652" y2="53.7043" gradientUnits="userSpaceOnUse">
<stop stop-color="#747DEF"/>
<stop offset="1" stop-color="#5E3BE1"/>
</linearGradient>
</defs>
</svg>
