<svg width="23" height="20" viewBox="0 0 23 20" fill="none" xmlns="http://www.w3.org/2000/svg">
<rect width="23" height="20" fill="#E5E5E5"/>
<g clip-path="url(#clip0_0_1)">
<rect width="1440" height="4774" transform="translate(-417 -4132)" fill="white"/>
<path opacity="0.2" d="M888 -265C888 -276.046 879.046 -285 868 -285H-152.999C-224.244 -285 -282 -227.245 -282 -156V102C-282 113.046 -273.045 122 -262 122H868C879.046 122 888 113.046 888 102V-265Z" fill="#DFD7F9"/>
<g opacity="0.1">
<mask id="mask0_0_1" style="mask-type:alpha" maskUnits="userSpaceOnUse" x="-282" y="-239" width="394" height="361">
<path d="M110.5 -238.5L110.5 121.5L-281.5 121.5L-281.5 -238.5L110.5 -238.5Z" fill="url(#paint0_linear_0_1)" stroke="#6246E5"/>
</mask>
<g mask="url(#mask0_0_1)">
<path d="M-119.227 219.902C-196.803 219.902 -259.692 156.925 -259.692 79.2374C-259.692 1.54979 -196.803 -61.4273 -119.227 -61.4273C-41.6508 -61.4272 21.2383 1.5498 21.2383 79.2374C21.2383 156.925 -41.6508 219.902 -119.227 219.902Z" stroke="#6246E5"/>
<path d="M-108.447 224.885C-193.351 224.885 -262.18 155.959 -262.18 70.9339C-262.18 -14.0914 -193.351 -83.0169 -108.447 -83.0169C-23.5439 -83.0168 45.2852 -14.0914 45.2851 70.9339C45.2851 155.959 -23.5439 224.885 -108.447 224.885Z" stroke="#6246E5"/>
<path d="M-92.692 228.206C-184.007 228.206 -258.033 154.076 -258.033 62.6302C-258.033 -28.8156 -184.007 -102.946 -92.6919 -102.946C-1.3771 -102.946 72.6494 -28.8155 72.6494 62.6303C72.6494 154.076 -1.37711 228.206 -92.692 228.206Z" stroke="#6246E5"/>
<path d="M-77.3518 231.528C-174.849 231.528 -253.887 152.378 -253.887 54.7415C-253.887 -42.8955 -174.849 -122.045 -77.3518 -122.045C20.1455 -122.045 99.1838 -42.8955 99.1838 54.7415C99.1838 152.379 20.1455 231.528 -77.3518 231.528Z" stroke="#6246E5"/>
<path d="M-59.9385 235.68C-167.053 235.68 -253.887 148.723 -253.887 41.4556C-253.887 -65.8121 -167.053 -152.769 -59.9385 -152.769C47.1759 -152.769 134.01 -65.8121 134.01 41.4556C134.01 148.723 47.1759 235.68 -59.9385 235.68Z" stroke="#6246E5"/>
</g>
</g>
<rect x="-29.9996" y="-24" width="421" height="68" rx="10" fill="white"/>
<path d="M5.00037 7L10.4004 11.05C10.7559 11.3167 11.2448 11.3167 11.6004 11.05L17.0004 7" stroke="#39425D" stroke-linecap="round"/>
<rect x="1.00037" y="1" width="21" height="18" rx="5" stroke="#39425D"/>
</g>
<defs>
<linearGradient id="paint0_linear_0_1" x1="97.5335" y1="17.0353" x2="-373.065" y2="-231.296" gradientUnits="userSpaceOnUse">
<stop stop-color="#747DEF"/>
<stop offset="1" stop-color="#5E3BE1"/>
</linearGradient>
<clipPath id="clip0_0_1">
<rect width="1440" height="4774" fill="white" transform="translate(-417 -4132)"/>
</clipPath>
</defs>
</svg>
