<svg width="36" height="36" viewBox="0 0 36 36" fill="none" xmlns="http://www.w3.org/2000/svg">
<circle cx="18" cy="18" r="18" fill="#F5F5F5"/>
<g clip-path="url(#clip0_1_211)">
<path d="M24.5009 11C24.4232 11 24.3466 11.018 24.2771 11.0527L20.4882 12.9477L16.2038 11.0432C16.1968 11.0403 16.1888 11.0397 16.1813 11.0367C16.162 11.0295 16.1423 11.0235 16.1223 11.0187C16.1024 11.0134 16.0822 11.0092 16.0618 11.0062C16.0212 11.0029 15.9804 11.0029 15.9398 11.0062C15.9194 11.0092 15.8992 11.0134 15.8793 11.0187C15.8593 11.0235 15.8396 11.0295 15.8203 11.0367C15.8128 11.0397 15.8048 11.0402 15.7978 11.0432L11.2979 13.0432C11.1172 13.1234 11.0008 13.3026 11.0009 13.5002V24.5C11.0009 24.6692 11.0865 24.8268 11.2283 24.919C11.3702 25.0114 11.5491 25.0257 11.7038 24.957L16.0008 23.047L20.2977 24.957C20.3052 24.96 20.3132 24.957 20.3207 24.9615C20.4417 25.0157 20.5807 25.0126 20.6992 24.953C20.7072 24.9496 20.7162 24.953 20.7242 24.9475L24.7241 22.9476C24.8936 22.8629 25.0007 22.6896 25.0006 22.5V11.5002C25.0008 11.2241 24.777 11.0001 24.5009 11ZM15.5008 22.1751L12.0008 23.7305V13.8252L15.5008 12.2697V22.1751ZM20.0007 23.7305L16.5008 22.1751V12.2697L20.0007 13.8252V23.7305ZM24.0006 22.1911L21.0007 23.691V13.8092L24.0006 12.3092V22.1911Z" fill="#84829A"/>
</g>
<defs>
<clipPath id="clip0_1_211">
<rect width="14" height="14" fill="white" transform="translate(11 11)"/>
</clipPath>
</defs>
</svg>
