<svg width="36" height="36" viewBox="0 0 36 36" fill="none" xmlns="http://www.w3.org/2000/svg">
<circle cx="18" cy="18" r="18" fill="#F5F5F5"/>
<path d="M23.3433 13.2424L17.0258 19.5832C16.9533 19.5413 16.8772 19.5061 16.7983 19.4782L12.6274 18.0666C12.5013 18.0349 12.3893 17.9621 12.3094 17.8596C12.2294 17.7571 12.1859 17.6308 12.1859 17.5007C12.1859 17.3707 12.2294 17.2444 12.3094 17.1419C12.3893 17.0394 12.5013 16.9665 12.6274 16.9349L22.9758 13.2541C23.0434 13.2311 23.1143 13.2193 23.1858 13.2191C23.2392 13.2182 23.2924 13.2261 23.3433 13.2424Z" fill="#84829A"/>
<path d="M23.7458 14.0241L20.065 24.3841C20.0244 24.5048 19.9454 24.6089 19.8401 24.6806C19.7347 24.7522 19.6088 24.7874 19.4816 24.7807C19.353 24.7866 19.226 24.7497 19.1204 24.6759C19.0149 24.602 18.9368 24.4953 18.8983 24.3724L17.51 20.2016C17.4821 20.1226 17.4469 20.0465 17.405 19.9741L23.7575 13.6566C23.7933 13.7771 23.7892 13.906 23.7458 14.0241Z" fill="#84829A"/>
</svg>
